<!-- Generator: Adobe Illustrator 19.2.1, SVG Export Plug-In  -->
<svg version="1.1"
	 xmlns="http://www.w3.org/2000/svg" xmlns:xlink="http://www.w3.org/1999/xlink" xmlns:a="http://ns.adobe.com/AdobeSVGViewerExtensions/3.0/"
	 x="0px" y="0px" width="225.955px" height="54.291px" viewBox="0 0 225.955 54.291"
	 style="enable-background:new 0 0 225.955 54.291;" xml:space="preserve">
<style type="text/css">
	.st0{fill:#0072BC;}
</style>
<defs>
</defs>
<g>
	<g>
		<path class="st0" d="M33.029,36.733c0.64,0,0.557-0.363,0.557-1.042v-3.302c0-0.682-0.062-0.898,0.326-0.898
			c1.357,0,1.728-0.126,1.728-1.334V17.888c0-3.342-2.359-2.788-3.022-4.009c-0.946-1.651,1.765-1.651,0.779-5.227
			c-0.25-0.812-0.885-1.312-2.109-1.312c-1.226,0-1.863,0.5-2.111,1.312c-0.983,3.576,1.731,3.576,0.785,5.227
			c-0.668,1.221-3.023,0.667-3.023,4.009v12.269c0,1.208,0.365,1.334,1.728,1.334c0.381,0,0.322,0.216,0.322,0.898v3.302
			c0,0.679-0.082,1.042,0.561,1.042H33.029"/>
		<path class="st0" d="M22.289,10.121c-1.207,1.284-3.113,4.282-1.868,6.771c2.53,0.974,2.336-8.017,5.491-7.863
			c1.558,1.442-0.467,5.685-1.093,7.55c-0.778,2.303-1.399,7.126-2.879,9.459c-1.242,1.949-0.311,8.061-0.702,10.163
			c-1.047,1.05-3.892,0.308-5.098,0.112c0-2.411-0.315-4.317-0.7-8.172c-0.038-0.777-0.857-12.688-0.195-14.129
			c1.363-2.999,8.796-8.718,9.813-9.81C25.948,3.23,29.101,0,30.309,0c0.853,0.585,0.349,1.946,0.157,2.491
			C29.259,5.489,24.041,8.446,22.289,10.121"/>
		<path class="st0" d="M40.428,10.121c1.165,1.284,3.076,4.282,1.866,6.771c-2.568,0.974-2.371-8.017-5.528-7.863
			c-1.514,1.442,0.507,5.685,1.131,7.55c0.779,2.303,1.403,7.126,2.877,9.459c1.211,1.949,0.311,8.061,0.662,10.163
			c1.093,1.05,3.893,0.308,5.139,0.112c0-2.411,0.274-4.317,0.662-8.172c0.077-0.777,0.895-12.688,0.234-14.129
			c-1.361-2.999-8.795-8.718-9.807-9.81C36.732,3.23,33.614,0,32.406,0c-0.89,0.585-0.347,1.946-0.153,2.491
			C33.461,5.489,38.676,8.446,40.428,10.121"/>
		<path class="st0" d="M11.477,6.084c-0.662,0.626-2.148,1.053-3.16,2.413C7.928,7.76,8.94,5.968,10.15,4.915
			c0.895-0.745,2.653-1.952,3.155-2.067C13.697,3.744,12.295,5.111,11.477,6.084"/>
		<path class="st0" d="M9.409,10.961c-1.128,1.048-2.336,1.48-3.9,3.393c-0.662-2.304-0.505-4.332-0.196-5.698
			c0.549-1.791,1.444-3.783,2.968-4.405c-0.313,1.015-0.824,2.417-0.939,4.33c-0.66,2.614-1.054,2.691-0.896,3.042
			c0.153,0,1.011-1.366,2.066-2.418c1.25-1.246,2.806-1.522,3.82-2.261C12.18,7.449,11.284,9.047,9.409,10.961"/>
		<path class="st0" d="M3.914,21.763c-1.522-2.731-1.679-4.72-1.798-7.024c0.08-1.596,0.86-5.3,2.029-5.845
			c-0.351,3.351,0.55,3.663,0.195,6.432c0,0.155-0.392,3.043-0.392,3.198c0.469-0.077,0.042-2.654,5.381-6.357
			c-1.164,2.028-0.623,2.652-2.73,5.345C4.145,19.93,3.794,22.305,3.914,21.763"/>
		<path class="st0" d="M6.058,24.339c-1.134,1.637-0.939,2.455-1.211,3.233c-2.695-1.558-5.733-7.757-4.605-10.839
			c0.705,2.338,1.678,2.845,2.381,4.796c1.21,2.925,1.018,3.82,1.794,4.485c-0.157-1.521,0.35-3.316,0.862-4.642
			c0.741-1.131,1.32-2.613,1.871-3.121C7.733,20.4,7.303,22.153,6.058,24.339"/>
		<path class="st0" d="M8.475,29.642c0,2.378-0.432,3.432-0.626,5.185c-4.642-1.519-7.061-6.823-7.061-9.436
			c1.407,3.197,3.472,3.157,6.168,7.683c0.232-1.718-0.472-0.431-0.548-3.666c0.076-3.394,0.78-3.513,0.894-5.616
			C8.164,24.726,8.475,28.473,8.475,29.642"/>
		<path class="st0" d="M12.332,36.386c0.354,1.755,0.507,3.824,0.783,5.346c-2.65-0.975-3.318-0.235-6.473-2.225
			c-1.446-0.781-4.019-4.054-3.858-6.398c3.117,3.473,3.662,3.085,5.184,4.369c1.403,1.133,2.532,2.81,3.551,2.578
			c0.074-0.937-2.303-2.967-1.993-8.815C10.15,31.901,11.865,34.553,12.332,36.386"/>
		<path class="st0" d="M17.599,40.757c0.818,1.168,0.626,1.675,2.733,4.092c-0.512,0.234-3.51,1.015-5.505,1.095
			c-1.32,0-6.002-1.249-7.56-4.447c2.689,1.442,2.73,1.092,6.315,1.872c2.576,0.585,4.408,1.403,5.111,1.326
			c-0.156-0.35-2.142-1.171-3.509-2.886c-1.368-1.833-1.055-3.9-2.267-5.423C13.739,36.152,16.936,39.899,17.599,40.757"/>
		<path class="st0" d="M51.021,6.084c0.624,0.626,2.146,1.053,3.121,2.413c0.428-0.737-0.621-2.529-1.833-3.582
			c-0.852-0.745-2.612-1.952-3.162-2.067C48.759,3.744,50.162,5.111,51.021,6.084"/>
		<path class="st0" d="M53.089,10.961c1.092,1.048,2.303,1.48,3.858,3.393c0.666-2.304,0.508-4.332,0.202-5.698
			c-0.507-1.791-1.446-3.783-2.968-4.405c0.354,1.015,0.82,2.417,0.937,4.33c0.662,2.614,1.053,2.691,0.897,3.042
			c-0.155,0-1.014-1.366-2.07-2.418c-1.205-1.246-2.77-1.522-3.819-2.261C50.283,7.449,51.218,9.047,53.089,10.961"/>
		<path class="st0" d="M58.55,21.763c1.56-2.731,1.672-4.72,1.795-7.024c-0.082-1.596-0.862-5.3-1.991-5.845
			c0.311,3.351-0.586,3.663-0.196,6.432c0,0.155,0.353,3.043,0.353,3.198c-0.43-0.077-0.042-2.654-5.345-6.357
			c1.133,2.028,0.584,2.652,2.693,5.345C58.354,19.93,58.665,22.305,58.55,21.763"/>
		<path class="st0" d="M56.44,24.339c1.097,1.637,0.9,2.455,1.173,3.233c2.693-1.558,5.771-7.757,4.601-10.839
			c-0.663,2.338-1.676,2.845-2.338,4.796c-1.248,2.925-1.056,3.82-1.795,4.485c0.154-1.521-0.391-3.316-0.898-4.642
			c-0.701-1.131-1.323-2.613-1.873-3.121C54.765,20.4,55.153,22.153,56.44,24.339"/>
		<path class="st0" d="M53.986,29.642c0,2.378,0.464,3.432,0.663,5.185c4.605-1.519,7.06-6.823,7.06-9.436
			c-1.446,3.197-3.474,3.157-6.201,7.683c-0.235-1.718,0.464-0.431,0.544-3.666c-0.08-3.394-0.779-3.513-0.899-5.616
			C54.3,24.726,53.986,28.473,53.986,29.642"/>
		<path class="st0" d="M50.126,36.386c-0.353,1.755-0.469,3.824-0.741,5.346c2.613-0.975,3.276-0.235,6.432-2.225
			c1.444-0.781,4.059-4.054,3.902-6.398c-3.121,3.473-3.704,3.085-5.184,4.369c-1.407,1.133-2.577,2.81-3.593,2.578
			c-0.077-0.937,2.301-2.967,2.03-8.815C52.308,31.901,50.591,34.553,50.126,36.386"/>
		<path class="st0" d="M44.858,40.757c-0.782,1.168-0.588,1.675-2.729,4.092c0.544,0.234,3.51,1.015,5.539,1.095
			c1.286,0,5.967-1.249,7.523-4.447c-2.685,1.442-2.729,1.092-6.314,1.872c-2.576,0.585-4.369,1.403-5.107,1.326
			c0.153-0.35,2.178-1.171,3.51-2.886c1.362-1.833,1.051-3.9,2.297-5.423C48.723,36.152,45.525,39.899,44.858,40.757"/>
		<path class="st0" d="M24.581,51.753l-0.781-0.39c0,0,4.959-6.045,13.456-5.576c8.502,0.468,7.918,2.459,12.478,2.144
			c0.508-0.038-0.388,0.627-0.388,0.627s-4.447,1.711-9.946-0.159C33.939,46.528,30.389,45.395,24.581,51.753"/>
		<path class="st0" d="M38.032,51.753l0.786-0.39c0,0-4.916-6.045-13.417-5.576c-8.541,0.468-7.956,2.459-12.518,2.144
			c-0.508-0.038,0.388,0.627,0.388,0.627s4.443,1.711,9.945-0.159C28.712,46.528,32.264,45.395,38.032,51.753"/>
	</g>
	<path class="st0" d="M98.306,25.454c0,8.148-4.401,12.058-13.371,12.058c-8.974,0-13.418-3.91-13.418-12.058V7.432h9.053v16.006
		c0,3.002,0,6.75,4.404,6.75c4.28,0,4.28-3.748,4.28-6.75V7.432h9.052V25.454"/>
	<polygon class="st0" points="103.738,7.431 112.995,7.431 121.555,23.148 121.636,23.148 121.636,7.431 130.195,7.431 
		130.195,36.809 121.39,36.809 112.379,20.763 112.296,20.763 112.296,36.809 103.738,36.809 	"/>
	<polygon class="st0" points="135.752,7.431 144.805,7.431 144.805,17.635 153.283,17.635 153.283,7.431 162.335,7.431 
		162.335,36.809 153.283,36.809 153.283,25.165 144.805,25.165 144.805,36.809 135.752,36.809 	"/>
	<path class="st0" d="M185.502,18.377c-0.165-1.071-0.988-4.32-4.735-4.32c-4.238,0-5.594,4.112-5.594,8.063
		c0,3.949,1.356,8.067,5.594,8.067c3.048,0,4.241-2.141,4.777-4.897h8.887c0,5.924-4.815,12.221-13.415,12.221
		c-9.505,0-14.897-6.708-14.897-15.391c0-9.259,5.845-15.388,14.897-15.388c8.064,0.039,12.511,4.279,13.29,11.645H185.502"/>
	<path class="st0" d="M207.268,14.425h4.24c3.458,0,4.486,1.07,4.486,2.924c0,2.63-2.307,2.921-3.992,2.921h-4.734V14.425z
		 M198.215,36.81h9.053V26.566h4.819c3.577,0,3.823,2.922,4.071,5.721c0.121,1.522,0.286,3.044,0.741,4.523h9.054
		c-0.826-1.357-0.864-4.853-0.99-6.293c-0.329-3.663-1.85-6.379-4.321-7.326c3.005-1.112,4.405-4.32,4.405-7.365
		c0-5.557-4.448-8.394-9.589-8.394h-17.243V36.81"/>
	<polygon class="st0" points="74.463,43.564 71.512,43.564 71.512,41.743 79.578,41.743 79.578,43.564 76.627,43.564 76.627,51.588 
		74.463,51.588 	"/>
	<path class="st0" d="M80.253,41.743h1.959v3.709h0.039c0.499-0.8,1.353-1.185,2.084-1.185c2.081,0,2.606,1.172,2.606,2.936v4.385
		h-1.96v-4.027c0-1.172-0.342-1.751-1.252-1.751c-1.062,0-1.517,0.593-1.517,2.041v3.737h-1.959V41.743"/>
	<path class="st0" d="M89.739,48.498c0.055,1.242,0.661,1.806,1.75,1.806c0.788,0,1.42-0.481,1.544-0.924h1.724
		c-0.552,1.684-1.724,2.401-3.337,2.401c-2.245,0-3.64-1.545-3.64-3.751c0-2.137,1.477-3.763,3.64-3.763
		c2.427,0,3.599,2.039,3.463,4.231H89.739z M92.923,47.258c-0.179-0.993-0.607-1.516-1.558-1.516c-1.24,0-1.6,0.966-1.626,1.516
		H92.923"/>
	<path class="st0" d="M107.595,47.866c0,2.661-1.572,3.955-4.205,3.955c-2.647,0-4.192-1.281-4.192-3.955v-6.123h2.165v6.123
		c0,1.075,0.276,2.136,2.027,2.136c1.544,0,2.04-0.676,2.04-2.136v-6.123h2.165V47.866"/>
	<polygon class="st0" points="109.043,41.743 111.194,41.743 115.303,48.348 115.33,48.348 115.33,41.743 117.357,41.743 
		117.357,51.588 115.192,51.588 111.097,44.998 111.069,44.998 111.069,51.588 109.043,51.588 	"/>
	<path class="st0" d="M124.238,43.426h2.371c0.964,0,1.489,0.415,1.489,1.365c0,0.993-0.525,1.406-1.489,1.406h-2.371V43.426z
		 M122.073,51.589h2.165V47.74h2.164c1.089,0,1.49,0.456,1.641,1.489c0.11,0.787,0.083,1.739,0.345,2.36h2.165
		c-0.386-0.554-0.373-1.712-0.414-2.331c-0.069-0.993-0.371-2.026-1.434-2.302v-0.028c1.089-0.441,1.558-1.311,1.558-2.468
		c0-1.488-1.116-2.716-2.882-2.716h-5.308V51.589"/>
	<path class="st0" d="M133.186,47.258c0.028-0.55,0.385-1.516,1.627-1.516c0.951,0,1.379,0.523,1.559,1.516H133.186z
		 M138.328,48.498c0.139-2.192-1.034-4.231-3.46-4.231c-2.165,0-3.64,1.626-3.64,3.763c0,2.206,1.393,3.752,3.64,3.752
		c1.614,0,2.784-0.718,3.337-2.402h-1.723c-0.126,0.443-0.76,0.924-1.544,0.924c-1.089,0-1.697-0.564-1.752-1.806H138.328"/>
	<path class="st0" d="M139.619,45.768h-1.173v-1.309h1.173v-0.551c0-1.255,0.785-2.165,2.384-2.165c0.345,0,0.704,0.042,1.033,0.056
		v1.462c-0.232-0.028-0.467-0.043-0.717-0.043c-0.522,0-0.743,0.221-0.743,0.814v0.427h1.351v1.309h-1.351v5.82h-1.957V45.768"/>
	<path class="st0" d="M150.222,51.589h-1.862v-0.994h-0.042c-0.497,0.799-1.351,1.187-2.178,1.187c-2.081,0-2.606-1.174-2.606-2.938
		V44.46h1.958v4.025c0,1.173,0.344,1.752,1.255,1.752c1.061,0,1.516-0.593,1.516-2.041V44.46h1.959V51.589"/>
	<path class="st0" d="M154.728,49.905c-1.199,0-1.584-1.116-1.584-2.136c0-1.061,0.481-2.027,1.584-2.027
		c1.269,0,1.668,1.033,1.668,2.191C156.396,48.954,155.846,49.905,154.728,49.905 M158.258,44.459h-1.862v0.952h-0.026
		c-0.469-0.828-1.185-1.144-2.125-1.144c-1.998,0-3.06,1.681-3.06,3.528c0,1.958,0.91,3.586,3.048,3.586
		c0.854,0,1.71-0.36,2.137-1.103h0.026v0.938c0.015,1.02-0.482,1.764-1.57,1.764c-0.689,0-1.282-0.249-1.463-0.979h-1.943
		c0.095,1.626,1.736,2.29,3.144,2.29c3.281,0,3.694-1.987,3.694-3.159V44.459"/>
	<path class="st0" d="M161.196,47.258c0.026-0.55,0.385-1.516,1.626-1.516c0.952,0,1.379,0.523,1.558,1.516H161.196z
		 M166.339,48.498c0.137-2.192-1.035-4.231-3.462-4.231c-2.164,0-3.64,1.626-3.64,3.763c0,2.206,1.394,3.752,3.64,3.752
		c1.614,0,2.786-0.718,3.337-2.402h-1.723c-0.126,0.443-0.759,0.924-1.545,0.924c-1.089,0-1.696-0.564-1.75-1.806H166.339"/>
	<path class="st0" d="M168.861,47.258c0.028-0.55,0.385-1.516,1.627-1.516c0.951,0,1.38,0.523,1.557,1.516H168.861z M174.003,48.498
		c0.138-2.192-1.034-4.231-3.46-4.231c-2.165,0-3.64,1.626-3.64,3.763c0,2.206,1.392,3.752,3.64,3.752
		c1.613,0,2.784-0.718,3.338-2.402h-1.725c-0.124,0.443-0.759,0.924-1.545,0.924c-1.089,0-1.695-0.564-1.75-1.806H174.003"/>
	<path class="st0" d="M182.965,44.17h0.027l1.241,3.613h-2.55L182.965,44.17z M178.153,51.589h2.191l0.774-2.193h3.68l0.745,2.193
		h2.249l-3.683-9.845h-2.219L178.153,51.589z"/>
	<path class="st0" d="M191.458,49.905c-1.199,0-1.586-1.116-1.586-2.136c0-1.061,0.483-2.027,1.586-2.027
		c1.269,0,1.67,1.033,1.67,2.191C193.128,48.954,192.574,49.905,191.458,49.905 M194.988,44.459h-1.86v0.952h-0.029
		c-0.469-0.828-1.186-1.144-2.123-1.144c-2,0-3.062,1.681-3.062,3.528c0,1.958,0.911,3.586,3.047,3.586
		c0.855,0,1.712-0.36,2.138-1.103h0.029v0.938c0.012,1.02-0.484,1.764-1.573,1.764c-0.689,0-1.282-0.249-1.462-0.979h-1.945
		c0.098,1.626,1.74,2.29,3.145,2.29c3.28,0,3.695-1.987,3.695-3.159V44.459"/>
	<path class="st0" d="M197.924,47.258c0.026-0.55,0.387-1.516,1.627-1.516c0.951,0,1.38,0.523,1.558,1.516H197.924z M203.067,48.498
		c0.137-2.192-1.033-4.231-3.46-4.231c-2.166,0-3.64,1.626-3.64,3.763c0,2.206,1.391,3.752,3.64,3.752
		c1.613,0,2.785-0.718,3.335-2.402h-1.722c-0.125,0.443-0.759,0.924-1.545,0.924c-1.088,0-1.696-0.564-1.751-1.806H203.067"/>
	<path class="st0" d="M203.921,44.459h1.861v0.993h0.043c0.496-0.8,1.351-1.185,2.177-1.185c2.081,0,2.606,1.172,2.606,2.936v4.385
		h-1.959v-4.027c0-1.172-0.343-1.751-1.253-1.751c-1.062,0-1.517,0.593-1.517,2.041v3.737h-1.958V44.459"/>
	<path class="st0" d="M216.646,46.97c-0.123-0.8-0.634-1.227-1.447-1.227c-1.254,0-1.668,1.267-1.668,2.315
		c0,1.021,0.4,2.247,1.626,2.247c0.91,0,1.434-0.578,1.558-1.448h1.89c-0.248,1.89-1.559,2.925-3.433,2.925
		c-2.151,0-3.599-1.518-3.599-3.654c0-2.219,1.323-3.86,3.64-3.86c1.682,0,3.227,0.882,3.35,2.702H216.646"/>
	<path class="st0" d="M222.976,52.483c-0.428,1.144-1.104,1.614-2.455,1.614c-0.4,0-0.799-0.027-1.2-0.068v-1.614
		c0.373,0.028,0.758,0.084,1.145,0.068c0.674-0.068,0.897-0.771,0.674-1.337l-2.507-6.687h2.096l1.613,4.881h0.028l1.557-4.881
		h2.028L222.976,52.483"/>
</g>
</svg>