<svg xmlns="http://www.w3.org/2000/svg" width="152.17mm" height="208.83mm" viewBox="0 0 431.34 591.97">
  <path d="M501.54,187.64l3.47,3.47m-5.48-3.47,3.47,3.47m-5.48-3.47,3.47,3.47m-5.48-3.47,3.47,3.47m-5.48-3.47,3.47,3.47m-5.48-3.47,3.47,3.47m-5.48-3.47,3.47,3.47m-5.48-3.47,3.47,3.47m-5.48-3.47,3.47,3.47m-5.48-3.47,3.47,3.47m-5.48-3.47,3.47,3.47m-5.48-3.47,3.47,3.47m-5.48-3.47,3.47,3.47m-5.48-3.47,3.47,3.47m-5.48-3.47,3.47,3.47m-5.48-3.47,3.47,3.47m-5.48-3.47,3.47,3.47m-5.48-3.47,3.47,3.47m-5.48-3.47,3.47,3.47m-5.48-3.47,3.47,3.47m-5.48-3.47,3.47,3.47m-5.48-3.47,3.47,3.47m-5.48-3.47,3.47,3.47m-5.48-3.47,3.47,3.47m-5.48-3.47,3.47,3.47m-5.48-3.47,3.47,3.47m-5.48-3.47,3.47,3.47m-5.48-3.47,3.47,3.47m-5.48-3.47,3.47,3.47m-5.48-3.47,3.47,3.47m-5.48-3.47,3.47,3.47m-5.48-3.47,3.47,3.47m-5.48-3.47,3.47,3.47m-5.48-3.47,3.47,3.47m-5.48-3.47,3.47,3.47m-5.48-3.47,3.47,3.47m-5.48-3.47,3.47,3.47m-5.48-3.47,3.47,3.47m-5.48-3.47,3.47,3.47m-5.48-3.47,3.47,3.47m-5.48-3.47,3.47,3.47m-5.48-3.47,3.47,3.47m-5.48-3.47,3.47,3.47m-5.48-3.47,3.47,3.47m-5.48-3.47,3.47,3.47m-5.48-3.47,3.47,3.47m-5.48-3.47,3.47,3.47m-5.48-3.47,3.47,3.47m-5.48-3.47,3.47,3.47m-5.48-3.47,3.47,3.47m-5.48-3.47,3.47,3.47m-5.48-3.47,3.47,3.47m-5.48-3.47,3.47,3.47m-5.48-3.47,3.47,3.47m-5.48-3.47,3.47,3.47m-5.48-3.47,3.47,3.47m-5.48-3.47,3.47,3.47m-5.48-3.47,3.47,3.47m-5.48-3.47,3.47,3.47m-5.48-3.47,3.47,3.47m-5.48-3.47,3.47,3.47m-5.48-3.47,3.47,3.47m-5.48-3.47,3.47,3.47m-5.48-3.47,3.47,3.47m-5.48-3.47,3.47,3.47m-5.48-3.47,3.47,3.47m-5.48-3.47,3.47,3.47m-5.48-3.47,3.47,3.47m-5.48-3.47,3.47,3.47m-5.48-3.47,3.47,3.47m-5.48-3.47,3.47,3.47m-5.48-3.47,3.47,3.47m-5.48-3.47,3.47,3.47m-5.48-3.47,3.47,3.47m-5.48-3.47,3.47,3.47m-5.48-3.47,3.47,3.47m-5.48-3.47,3.47,3.47m-5.48-3.47,3.47,3.47m-5.48-3.47,3.47,3.47m-5.48-3.47,3.47,3.47m-5.48-3.47,3.47,3.47m-5.48-3.47,3.47,3.47m-5.48-3.47,3.47,3.47m-5.48-3.47,3.47,3.47m-5.48-3.47,3.47,3.47m-5.48-3.47,3.47,3.47m-5.48-3.47,3.47,3.47m-5.48-3.47,3.47,3.47m-5.48-3.47,3.47,3.47m-5.48-3.47,3.47,3.47m-5.48-3.47,3.47,3.47m-5.48-3.47,3.47,3.47m-5.48-3.47,3.47,3.47m-5.48-3.47,3.47,3.47M313,187.64l3.47,3.47M311,187.64l3.47,3.47M309,187.64l3.47,3.47M307,187.64l3.47,3.47M305,187.64l3.47,3.47M303,187.64l3.47,3.47M301,187.64l3.47,3.47M299,187.64l3.47,3.47M297,187.64l3.47,3.47M295,187.64l3.47,3.47M293,187.64l3.47,3.47M291,187.64l3.47,3.47M289,187.64l3.47,3.47M287,187.64l3.47,3.47M285,187.64l3.47,3.47M283,187.64l3.47,3.47M281,187.64l3.47,3.47M279,187.64l3.47,3.47M277,187.64l3.47,3.47m-5.48-3.47,3.47,3.47m-5.48-3.47,3.47,3.47m-5.48-3.47,3.47,3.47m-5.48-3.47,3.47,3.47m-5.48-3.47,3.47,3.47m-5.48-3.47,3.47,3.47m-5.48-3.47,3.47,3.47m-5.48-3.47,3.47,3.47m-5.48-3.47,3.47,3.47m-5.48-3.47,3.47,3.47m-5.48-3.47,3.47,3.47m-5.48-3.47,3.47,3.47m-5.48-3.47,3.47,3.47m-5.48-3.47,3.47,3.47m-5.48-3.47,3.47,3.47m-5.48-3.47,3.47,3.47m-5.48-3.47,3.47,3.47m-5.48-3.47,3.47,3.47m-5.48-3.47,3.47,3.47m-5.48-3.47,3.47,3.47m-5.48-3.47,3.47,3.47m-5.48-3.47,3.47,3.47m-5.48-3.47,3.47,3.47m-5.48-3.47,3.47,3.47m-5.48-3.47,3.47,3.47m-5.48-3.47,3.47,3.47m-5.48-3.47,3.47,3.47m-5.48-3.47,3.47,3.47m-5.48-3.47,3.47,3.47m-5.48-3.47,3.47,3.47m-5.48-3.47,3.47,3.47m-5.48-3.47,3.47,3.47m-5.48-3.47,3.47,3.47m-5.48-3.47,3.47,3.47m-5.48-3.47,3.47,3.47m-5.48-3.47,3.47,3.47m-5.48-3.47,3.47,3.47m-5.48-3.47,3.47,3.47m-5.48-3.47,3.47,3.47m-5.48-3.47,3.47,3.47m-5.48-3.47,3.47,3.47m-5.48-3.47,3.47,3.47m-5.48-3.47,3.47,3.47m-5.48-3.47,3.47,3.47m-5.48-3.47,3.47,3.47m-5.48-3.47,3.47,3.47m-5.48-3.47,3.47,3.47m-5.48-3.47,3.47,3.47m-5.48-3.47,3.47,3.47m-5.48-3.47,3.47,3.47m-5.48-3.47,3.47,3.47m-5.48-3.47,3.47,3.47m-5.48-3.47,3.47,3.47m-5.48-3.47,3.47,3.47m-5.48-3.47,3.47,3.47m-5.48-3.47,3.47,3.47m-5.48-3.47,3.47,3.47m-5.48-3.47,3.47,3.47m-5.48-3.47,3.47,3.47m-5.48-3.47,3.47,3.47m-5.48-3.47,3.47,3.47m-5.48-3.47,3.47,3.47m-5.48-3.47,3.47,3.47m-5.48-3.47,3.47,3.47m-5.48-3.47,3.47,3.47m-5.48-3.47,3.47,3.47m-5.48-3.47,3.47,3.47m-5.48-3.47,3.47,3.47m-5.48-3.47,3.47,3.47m-5.48-3.47,3.47,3.47m-5.48-3.47,3.47,3.47m-5.48-3.47,3.47,3.47m-5.48-3.47,3.47,3.47m-5.48-3.47,3.47,3.47m-5.48-3.47,3.47,3.47m-5.48-3.47,3.47,3.47m-5.48-3.47,3.47,3.47m-5.48-3.47,3.47,3.47m-5.48-3.47,3.47,3.47m-5.48-3.47,3.47,3.47m-5.48-3.47,3.47,3.47m-5.48-3.47,3.47,3.47m-5.48-3.47,3.47,3.47m-5.48-3.47,3.47,3.47m-5.48-3.47,3.47,3.47m-5.48-3.47,3.47,3.47m-5.48-3.47,3.47,3.47m-5.48-3.47,3.47,3.47m-5.48-3.47,3.47,3.47m-5.48-3.47,3.47,3.47m-5.48-3.47,3.47,3.47m-5.48-3.47,3.47,3.47m-5.48-3.47,3.47,3.47m-5.48-3.47,3.47,3.47m-5.48-3.47,3.47,3.47" transform="translate(-80 -83.52)" style="fill: none;stroke: #88817f;stroke-width: 0.7480000257492065px"/>
  <path d="M106,195.72a6.2,6.2,0,1,0-6.2-6.2,6.2,6.2,0,0,0,6.2,6.2" transform="translate(-80 -83.52)" style="fill: #6c6361"/>
  <path d="M186.29,195.32a6.2,6.2,0,1,0-6.2-6.2,6.2,6.2,0,0,0,6.2,6.2" transform="translate(-80 -83.52)" style="fill: #6c6361"/>
  <path d="M294.74,195.72a6.2,6.2,0,1,0-6.2-6.2,6.2,6.2,0,0,0,6.2,6.2" transform="translate(-80 -83.52)" style="fill: #6c6361"/>
  <path d="M501.41,283.68l3.47,3.47m-5.48-3.47,3.47,3.47m-5.48-3.47,3.47,3.47m-5.48-3.47,3.47,3.47m-5.48-3.47,3.47,3.47m-5.48-3.47,3.47,3.47m-5.47-3.47,3.47,3.47m-5.48-3.47,3.47,3.47m-5.47-3.47,3.47,3.47m-5.48-3.47,3.47,3.47m-5.48-3.47,3.47,3.47m-5.48-3.47,3.47,3.47m-5.48-3.47,3.47,3.47m-5.48-3.47,3.47,3.47m-5.48-3.47,3.47,3.47m-5.48-3.47,3.47,3.47m-5.48-3.47,3.47,3.47m-5.48-3.47,3.47,3.47m-5.48-3.47,3.47,3.47m-5.48-3.47,3.47,3.47m-5.48-3.47,3.47,3.47m-5.48-3.47,3.47,3.47m-5.48-3.47,3.47,3.47m-5.48-3.47,3.47,3.47m-5.48-3.47,3.47,3.47m-5.48-3.47,3.47,3.47m-5.48-3.47,3.47,3.47m-5.48-3.47,3.47,3.47m-5.48-3.47,3.47,3.47m-5.48-3.47,3.47,3.47m-5.48-3.47,3.47,3.47m-5.48-3.47,3.47,3.47m-5.48-3.47,3.47,3.47m-5.48-3.47,3.47,3.47m-5.48-3.47,3.47,3.47m-5.48-3.47,3.47,3.47m-5.48-3.47,3.47,3.47m-5.48-3.47,3.47,3.47m-5.48-3.47,3.47,3.47m-5.48-3.47,3.47,3.47m-5.48-3.47,3.47,3.47m-5.48-3.47,3.47,3.47m-5.48-3.47,3.47,3.47m-5.48-3.47,3.47,3.47m-5.48-3.47,3.47,3.47m-5.47-3.47,3.47,3.47m-5.48-3.47,3.47,3.47m-5.48-3.47,3.47,3.47m-5.48-3.47,3.47,3.47m-5.48-3.47,3.47,3.47m-5.48-3.47,3.47,3.47m-5.48-3.47,3.47,3.47m-5.48-3.47,3.47,3.47m-5.48-3.47,3.47,3.47m-5.48-3.47,3.47,3.47m-5.48-3.47,3.47,3.47m-5.48-3.47,3.47,3.47m-5.48-3.47,3.47,3.47m-5.48-3.47,3.47,3.47m-5.47-3.47,3.47,3.47m-5.48-3.47,3.47,3.47m-5.48-3.47,3.47,3.47m-5.48-3.47,3.47,3.47m-5.48-3.47,3.47,3.47m-5.48-3.47,3.47,3.47m-5.48-3.47,3.47,3.47m-5.48-3.47,3.47,3.47m-5.48-3.47,3.47,3.47m-5.48-3.47,3.47,3.47m-5.48-3.47,3.47,3.47m-5.48-3.47,3.47,3.47m-5.48-3.47,3.47,3.47m-5.48-3.47,3.47,3.47m-5.47-3.47,3.47,3.47m-5.48-3.47,3.47,3.47m-5.48-3.47,3.47,3.47m-5.48-3.47,3.47,3.47m-5.48-3.47,3.47,3.47m-5.48-3.47,3.47,3.47M343,283.68l3.47,3.47M341,283.68l3.47,3.47M339,283.68l3.47,3.47M337,283.68l3.47,3.47M335,283.68l3.47,3.47M333,283.68l3.47,3.47M331,283.68l3.47,3.47M329,283.68l3.47,3.47M327,283.68l3.47,3.47M325,283.68l3.47,3.47M323,283.68l3.47,3.47M321,283.68l3.47,3.47M319,283.68l3.47,3.47M317,283.68l3.47,3.47M315,283.68l3.47,3.47M313,283.68l3.47,3.47M311,283.68l3.47,3.47M309,283.68l3.47,3.47M307,283.68l3.47,3.47M305,283.68l3.47,3.47M303,283.68l3.47,3.47m-5.48-3.47,3.47,3.47m-5.48-3.47,3.47,3.47m-5.48-3.47,3.47,3.47m-5.48-3.47,3.47,3.47m-5.48-3.47,3.47,3.47m-5.48-3.47,3.47,3.47m-5.48-3.47,3.47,3.47m-5.48-3.47,3.47,3.47m-5.48-3.47,3.47,3.47m-5.47-3.47,3.47,3.47m-5.48-3.47,3.47,3.47m-5.48-3.47,3.47,3.47m-5.48-3.47,3.47,3.47m-5.48-3.47,3.47,3.47m-5.48-3.47,3.47,3.47m-5.48-3.47,3.47,3.47m-5.48-3.47,3.47,3.47m-5.48-3.47,3.47,3.47m-5.48-3.47,3.47,3.47m-5.48-3.47,3.47,3.47m-5.47-3.47,3.47,3.47m-5.48-3.47,3.47,3.47m-5.48-3.47,3.47,3.47m-5.48-3.47,3.47,3.47m-5.48-3.47,3.47,3.47m-5.48-3.47,3.47,3.47m-5.48-3.47,3.47,3.47m-5.48-3.47,3.47,3.47m-5.48-3.47,3.47,3.47m-5.48-3.47,3.47,3.47m-5.48-3.47,3.47,3.47m-5.48-3.47,3.47,3.47m-5.48-3.47,3.47,3.47m-5.48-3.47,3.47,3.47m-5.47-3.47,3.47,3.47m-5.48-3.47,3.47,3.47m-5.48-3.47,3.47,3.47m-5.48-3.47,3.47,3.47m-5.48-3.47,3.47,3.47m-5.48-3.47,3.47,3.47m-5.48-3.47,3.47,3.47m-5.48-3.47,3.47,3.47m-5.47-3.47,3.47,3.47m-5.48-3.47,3.47,3.47m-5.48-3.47,3.47,3.47m-5.48-3.47,3.47,3.47m-5.48-3.47,3.47,3.47m-5.48-3.47,3.47,3.47m-5.48-3.47,3.47,3.47m-5.48-3.47,3.47,3.47m-5.48-3.47,3.47,3.47m-5.48-3.47,3.47,3.47m-5.48-3.47,3.47,3.47m-5.48-3.47,3.47,3.47m-5.48-3.47,3.47,3.47m-5.48-3.47,3.47,3.47m-5.47-3.47,3.47,3.47m-5.48-3.47,3.47,3.47m-5.48-3.47,3.47,3.47m-5.47-3.47,3.47,3.47m-5.48-3.47,3.47,3.47m-5.48-3.47,3.47,3.47m-5.48-3.47,3.47,3.47m-5.48-3.47,3.47,3.47m-5.48-3.47,3.47,3.47m-5.48-3.47,3.47,3.47m-5.48-3.47,3.47,3.47m-5.48-3.47,3.47,3.47m-5.48-3.47,3.47,3.47m-5.48-3.47,3.47,3.47m-5.48-3.47,3.47,3.47m-5.48-3.47,3.47,3.47m-5.48-3.47,3.47,3.47m-5.48-3.47,3.47,3.47m-5.48-3.47,3.47,3.47m-5.48-3.47,3.47,3.47m-5.47-3.47,3.47,3.47m-5.48-3.47,3.47,3.47m-5.47-3.47,3.47,3.47m-5.47-3.47,3.47,3.47m-5.48-3.47,3.47,3.47m-5.47-3.47,3.47,3.47m-5.48-3.47,3.47,3.47m-5.48-3.47,3.47,3.47m-5.48-3.47,3.47,3.47m-5.48-3.47,3.47,3.47m-5.48-3.47,3.47,3.47m-5.48-3.47,3.47,3.47m-5.48-3.47,3.47,3.47m-5.48-3.47,3.47,3.47m-5.48-3.47,3.47,3.47m-5.48-3.47,3.47,3.47m-5.47-3.47,3.47,3.47m-5.48-3.47,3.47,3.47m-5.48-3.47,3.47,3.47m-5.47-3.47,3.47,3.47m-5.48-3.47,3.47,3.47m-5.48-3.47,3.47,3.47m-5.48-3.47,3.47,3.47m-5.48-3.47,3.47,3.47m-5.48-3.47,3.47,3.47m-5.48-3.47,3.47,3.47m-5.48-3.47,3.47,3.47m-5.47-3.47,3.47,3.47m-5.48-3.47,3.47,3.47m-5.48-3.47,3.47,3.47m-5.47-3.47,3.47,3.47m-5.48-3.47,3.47,3.47" transform="translate(-80 -83.52)" style="fill: none;stroke: #88817f;stroke-width: 0.7480000257492065px"/>
  <path d="M501.54,379.27l3.47,3.47m-5.48-3.47,3.47,3.47m-5.48-3.47,3.47,3.47m-5.48-3.47,3.47,3.47m-5.48-3.47,3.47,3.47m-5.48-3.47,3.47,3.47m-5.48-3.47,3.47,3.47m-5.48-3.47,3.47,3.47m-5.48-3.47,3.47,3.47m-5.48-3.47,3.47,3.47m-5.48-3.47,3.47,3.47m-5.48-3.47,3.47,3.47m-5.48-3.47,3.47,3.47m-5.48-3.47,3.47,3.47m-5.48-3.47,3.47,3.47m-5.48-3.47,3.47,3.47m-5.48-3.47,3.47,3.47m-5.48-3.47,3.47,3.47m-5.48-3.47,3.47,3.47m-5.48-3.47,3.47,3.47m-5.48-3.47,3.47,3.47m-5.48-3.47,3.47,3.47m-5.48-3.47,3.47,3.47m-5.48-3.47,3.47,3.47m-5.48-3.47,3.47,3.47m-5.48-3.47,3.47,3.47m-5.48-3.47,3.47,3.47m-5.48-3.47,3.47,3.47m-5.48-3.47,3.47,3.47m-5.48-3.47,3.47,3.47m-5.48-3.47,3.47,3.47m-5.48-3.47,3.47,3.47m-5.48-3.47,3.47,3.47m-5.48-3.47,3.47,3.47m-5.48-3.47,3.47,3.47m-5.48-3.47,3.47,3.47m-5.48-3.47,3.47,3.47m-5.48-3.47,3.47,3.47m-5.48-3.47,3.47,3.47m-5.48-3.47,3.47,3.47m-5.48-3.47,3.47,3.47m-5.48-3.47,3.47,3.47m-5.48-3.47,3.47,3.47m-5.48-3.47,3.47,3.47m-5.48-3.47,3.47,3.47m-5.48-3.47,3.47,3.47m-5.48-3.47,3.47,3.47m-5.48-3.47,3.47,3.47m-5.48-3.47,3.47,3.47m-5.48-3.47,3.47,3.47m-5.48-3.47,3.47,3.47m-5.48-3.47,3.47,3.47m-5.48-3.47,3.47,3.47m-5.48-3.47,3.47,3.47m-5.48-3.47,3.47,3.47m-5.48-3.47,3.47,3.47m-5.48-3.47,3.47,3.47m-5.48-3.47,3.47,3.47m-5.48-3.47,3.47,3.47m-5.48-3.47,3.47,3.47m-5.48-3.47,3.47,3.47m-5.48-3.47,3.47,3.47m-5.48-3.47,3.47,3.47m-5.48-3.47,3.47,3.47m-5.48-3.47,3.47,3.47m-5.48-3.47,3.47,3.47m-5.48-3.47,3.47,3.47m-5.48-3.47,3.47,3.47m-5.48-3.47,3.47,3.47m-5.48-3.47,3.47,3.47m-5.48-3.47,3.47,3.47m-5.48-3.47,3.47,3.47m-5.48-3.47,3.47,3.47m-5.48-3.47,3.47,3.47m-5.48-3.47,3.47,3.47m-5.48-3.47,3.47,3.47m-5.48-3.47,3.47,3.47m-5.48-3.47,3.47,3.47m-5.48-3.47,3.47,3.47m-5.48-3.47,3.47,3.47m-5.48-3.47,3.47,3.47m-5.48-3.47,3.47,3.47m-5.48-3.47,3.47,3.47m-5.48-3.47,3.47,3.47m-5.48-3.47,3.47,3.47m-5.48-3.47,3.47,3.47m-5.48-3.47,3.47,3.47m-5.48-3.47,3.47,3.47m-5.48-3.47,3.47,3.47m-5.48-3.47,3.47,3.47m-5.48-3.47,3.47,3.47m-5.48-3.47,3.47,3.47m-5.48-3.47,3.47,3.47m-5.48-3.47,3.47,3.47M313,379.27l3.47,3.47M311,379.27l3.47,3.47M309,379.27l3.47,3.47M307,379.27l3.47,3.47M305,379.27l3.47,3.47M303,379.27l3.47,3.47M301,379.27l3.47,3.47M299,379.27l3.47,3.47M297,379.27l3.47,3.47M295,379.27l3.47,3.47M293,379.27l3.47,3.47M291,379.27l3.47,3.47M289,379.27l3.47,3.47M287,379.27l3.47,3.47M285,379.27l3.47,3.47M283,379.27l3.47,3.47M281,379.27l3.47,3.47M279,379.27l3.47,3.47M277,379.27l3.47,3.47m-5.48-3.47,3.47,3.47m-5.48-3.47,3.47,3.47m-5.48-3.47,3.47,3.47m-5.48-3.47,3.47,3.47m-5.48-3.47,3.47,3.47m-5.48-3.47,3.47,3.47m-5.48-3.47,3.47,3.47m-5.48-3.47,3.47,3.47m-5.48-3.47,3.47,3.47m-5.48-3.47,3.47,3.47m-5.48-3.47,3.47,3.47m-5.48-3.47,3.47,3.47m-5.48-3.47,3.47,3.47m-5.48-3.47,3.47,3.47m-5.48-3.47,3.47,3.47m-5.48-3.47,3.47,3.47m-5.48-3.47,3.47,3.47m-5.48-3.47,3.47,3.47m-5.48-3.47,3.47,3.47m-5.48-3.47,3.47,3.47m-5.48-3.47,3.47,3.47m-5.48-3.47,3.47,3.47m-5.48-3.47,3.47,3.47m-5.48-3.47,3.47,3.47m-5.48-3.47,3.47,3.47m-5.48-3.47,3.47,3.47m-5.48-3.47,3.47,3.47m-5.48-3.47,3.47,3.47m-5.48-3.47,3.47,3.47m-5.48-3.47,3.47,3.47m-5.48-3.47,3.47,3.47m-5.48-3.47,3.47,3.47m-5.48-3.47,3.47,3.47m-5.48-3.47,3.47,3.47m-5.48-3.47,3.47,3.47m-5.48-3.47,3.47,3.47m-5.48-3.47,3.47,3.47m-5.48-3.47,3.47,3.47m-5.48-3.47,3.47,3.47m-5.48-3.47,3.47,3.47m-5.48-3.47,3.47,3.47m-5.48-3.47,3.47,3.47m-5.48-3.47,3.47,3.47m-5.48-3.47,3.47,3.47m-5.48-3.47,3.47,3.47m-5.48-3.47,3.47,3.47m-5.48-3.47,3.47,3.47m-5.48-3.47,3.47,3.47m-5.48-3.47,3.47,3.47m-5.48-3.47,3.47,3.47m-5.48-3.47,3.47,3.47m-5.48-3.47,3.47,3.47m-5.48-3.47,3.47,3.47m-5.48-3.47,3.47,3.47m-5.48-3.47,3.47,3.47m-5.48-3.47,3.47,3.47m-5.48-3.47,3.47,3.47m-5.48-3.47,3.47,3.47m-5.48-3.47,3.47,3.47m-5.48-3.47,3.47,3.47m-5.48-3.47,3.47,3.47m-5.48-3.47,3.47,3.47m-5.48-3.47,3.47,3.47m-5.48-3.47,3.47,3.47m-5.48-3.47,3.47,3.47m-5.48-3.47,3.47,3.47m-5.48-3.47,3.47,3.47m-5.48-3.47,3.47,3.47m-5.48-3.47,3.47,3.47m-5.48-3.47,3.47,3.47m-5.48-3.47,3.47,3.47m-5.48-3.47,3.47,3.47m-5.48-3.47,3.47,3.47m-5.48-3.47,3.47,3.47m-5.48-3.47,3.47,3.47m-5.48-3.47,3.47,3.47m-5.48-3.47,3.47,3.47m-5.48-3.47,3.47,3.47m-5.48-3.47,3.47,3.47m-5.48-3.47,3.47,3.47m-5.48-3.47,3.47,3.47m-5.48-3.47,3.47,3.47m-5.48-3.47,3.47,3.47m-5.48-3.47,3.47,3.47m-5.48-3.47,3.47,3.47m-5.48-3.47,3.47,3.47m-5.48-3.47,3.47,3.47m-5.48-3.47,3.47,3.47m-5.48-3.47,3.47,3.47m-5.48-3.47,3.47,3.47m-5.48-3.47,3.47,3.47m-5.48-3.47,3.47,3.47m-5.48-3.47,3.47,3.47m-5.48-3.47,3.47,3.47m-5.48-3.47,3.47,3.47" transform="translate(-80 -83.52)" style="fill: none;stroke: #88817f;stroke-width: 0.7480000257492065px"/>
  <path d="M106.52,387.28a6.2,6.2,0,1,0-6.2-6.2,6.2,6.2,0,0,0,6.2,6.2" transform="translate(-80 -83.52)" style="fill: #6c6361"/>
  <path d="M402.65,387.72a6.2,6.2,0,1,0-6.2-6.2,6.2,6.2,0,0,0,6.2,6.2" transform="translate(-80 -83.52)" style="fill: #6c6361"/>
  <path d="M501.41,474.92l3.47,3.47m-5.48-3.47,3.47,3.47m-5.48-3.47,3.47,3.47m-5.48-3.47,3.47,3.47m-5.48-3.47,3.47,3.47m-5.48-3.47,3.47,3.47m-5.48-3.47,3.47,3.47m-5.48-3.47,3.47,3.47m-5.47-3.47,3.47,3.47m-5.48-3.47,3.47,3.47m-5.48-3.47,3.47,3.47m-5.48-3.47,3.47,3.47m-5.48-3.47,3.47,3.47m-5.48-3.47,3.47,3.47m-5.48-3.47,3.47,3.47m-5.48-3.47,3.47,3.47m-5.48-3.47,3.47,3.47m-5.48-3.47,3.47,3.47m-5.48-3.47,3.47,3.47m-5.48-3.47,3.47,3.47m-5.48-3.47,3.47,3.47m-5.48-3.47,3.47,3.47m-5.48-3.47,3.47,3.47m-5.48-3.47,3.47,3.47m-5.48-3.47,3.47,3.47m-5.48-3.47,3.47,3.47m-5.48-3.47,3.47,3.47m-5.48-3.47,3.47,3.47m-5.48-3.47,3.47,3.47m-5.48-3.47,3.47,3.47m-5.48-3.47,3.47,3.47m-5.48-3.47,3.47,3.47m-5.48-3.47,3.47,3.47m-5.47-3.47,3.47,3.47m-5.48-3.47,3.47,3.47m-5.48-3.47,3.47,3.47m-5.48-3.47,3.47,3.47m-5.48-3.47,3.47,3.47m-5.48-3.47,3.47,3.47m-5.48-3.47,3.47,3.47m-5.48-3.47,3.47,3.47m-5.48-3.47,3.47,3.47m-5.48-3.47,3.47,3.47m-5.48-3.47,3.47,3.47m-5.48-3.47,3.47,3.47m-5.48-3.47,3.47,3.47m-5.48-3.47,3.47,3.47m-5.47-3.47,3.47,3.47m-5.48-3.47,3.47,3.47m-5.48-3.47,3.47,3.47m-5.48-3.47,3.47,3.47m-5.48-3.47,3.47,3.47m-5.48-3.47,3.47,3.47m-5.48-3.47,3.47,3.47m-5.48-3.47,3.47,3.47m-5.48-3.47,3.47,3.47m-5.48-3.47,3.47,3.47m-5.48-3.47,3.47,3.47m-5.48-3.47,3.47,3.47m-5.48-3.47,3.47,3.47m-5.48-3.47,3.47,3.47m-5.48-3.47,3.47,3.47m-5.48-3.47,3.47,3.47m-5.48-3.47,3.47,3.47m-5.48-3.47,3.47,3.47m-5.48-3.47,3.47,3.47m-5.48-3.47,3.47,3.47m-5.48-3.47,3.47,3.47m-5.48-3.47,3.47,3.47m-5.48-3.47,3.47,3.47m-5.48-3.47,3.47,3.47m-5.48-3.47,3.47,3.47m-5.48-3.47,3.47,3.47m-5.48-3.47,3.47,3.47m-5.48-3.47,3.47,3.47m-5.48-3.47,3.47,3.47m-5.48-3.47,3.47,3.47m-5.48-3.47,3.47,3.47m-5.48-3.47,3.47,3.47M343,474.92l3.47,3.47M341,474.92l3.47,3.47M339,474.92l3.47,3.47M337,474.92l3.47,3.47M335,474.92l3.47,3.47M333,474.92l3.47,3.47M331,474.92l3.47,3.47M329,474.92l3.47,3.47M327,474.92l3.47,3.47M325,474.92l3.47,3.47M323,474.92l3.47,3.47M321,474.92l3.47,3.47M319,474.92l3.47,3.47M317,474.92l3.47,3.47M315,474.92l3.47,3.47M313,474.92l3.47,3.47M311,474.92l3.47,3.47M309,474.92l3.47,3.47M307,474.92l3.47,3.47M305,474.92l3.47,3.47M303,474.92l3.47,3.47m-5.48-3.47,3.47,3.47m-5.48-3.47,3.47,3.47m-5.48-3.47,3.47,3.47m-5.47-3.47,3.47,3.47m-5.48-3.47,3.47,3.47m-5.48-3.47,3.47,3.47m-5.48-3.47,3.47,3.47m-5.48-3.47,3.47,3.47m-5.48-3.47,3.47,3.47m-5.48-3.47,3.47,3.47m-5.48-3.47,3.47,3.47m-5.48-3.47,3.47,3.47m-5.48-3.47,3.47,3.47m-5.48-3.47,3.47,3.47m-5.47-3.47,3.47,3.47m-5.48-3.47,3.47,3.47m-5.48-3.47,3.47,3.47m-5.48-3.47,3.47,3.47m-5.48-3.47,3.47,3.47m-5.48-3.47,3.47,3.47m-5.48-3.47,3.47,3.47m-5.48-3.47,3.47,3.47m-5.47-3.47,3.47,3.47m-5.48-3.47,3.47,3.47m-5.48-3.47,3.47,3.47m-5.48-3.47,3.47,3.47m-5.48-3.47,3.47,3.47m-5.48-3.47,3.47,3.47m-5.48-3.47,3.47,3.47m-5.48-3.47,3.47,3.47m-5.48-3.47,3.47,3.47m-5.48-3.47,3.47,3.47m-5.48-3.47,3.47,3.47m-5.48-3.47,3.47,3.47m-5.48-3.47,3.47,3.47m-5.48-3.47,3.47,3.47m-5.47-3.47,3.47,3.47m-5.48-3.47,3.47,3.47m-5.48-3.47,3.47,3.47m-5.48-3.47,3.47,3.47m-5.48-3.47,3.47,3.47m-5.48-3.47,3.47,3.47m-5.48-3.47,3.47,3.47m-5.48-3.47,3.47,3.47m-5.48-3.47,3.47,3.47m-5.47-3.47,3.47,3.47m-5.48-3.47,3.47,3.47m-5.47-3.47,3.47,3.47m-5.48-3.47,3.47,3.47m-5.48-3.47,3.47,3.47m-5.47-3.47,3.47,3.47m-5.48-3.47,3.47,3.47m-5.48-3.47,3.47,3.47m-5.47-3.47,3.47,3.47m-5.48-3.47,3.47,3.47m-5.48-3.47,3.47,3.47m-5.47-3.47,3.47,3.47m-5.48-3.47,3.47,3.47m-5.48-3.47,3.47,3.47m-5.47-3.47,3.47,3.47m-5.48-3.47,3.47,3.47m-5.48-3.47,3.47,3.47m-5.48-3.47,3.47,3.47m-5.48-3.47,3.47,3.47m-5.48-3.47,3.47,3.47m-5.48-3.47,3.47,3.47m-5.48-3.47,3.47,3.47m-5.48-3.47,3.47,3.47m-5.48-3.47,3.47,3.47m-5.47-3.47,3.47,3.47m-5.48-3.47,3.47,3.47m-5.48-3.47,3.47,3.47m-5.47-3.47,3.47,3.47m-5.48-3.47,3.47,3.47m-5.48-3.47,3.47,3.47m-5.47-3.47,3.47,3.47m-5.48-3.47,3.47,3.47m-5.48-3.47,3.47,3.47m-5.48-3.47,3.47,3.47m-5.48-3.47,3.47,3.47m-5.48-3.47,3.47,3.47m-5.48-3.47,3.47,3.47m-5.48-3.47,3.47,3.47m-5.48-3.47,3.47,3.47m-5.48-3.47,3.47,3.47m-5.48-3.47,3.47,3.47m-5.48-3.47,3.47,3.47m-5.48-3.47,3.47,3.47m-5.48-3.47,3.47,3.47m-5.47-3.47,3.47,3.47m-5.48-3.47,3.47,3.47m-5.48-3.47,3.47,3.47m-5.47-3.47,3.47,3.47m-5.48-3.47,3.47,3.47m-5.47-3.47,3.47,3.47m-5.47-3.47,3.47,3.47m-5.48-3.47,3.47,3.47m-5.48-3.47,3.47,3.47m-5.48-3.47,3.47,3.47m-5.48-3.47,3.47,3.47m-5.48-3.47,3.47,3.47m-5.48-3.47,3.47,3.47m-5.48-3.47,3.47,3.47m-5.48-3.47,3.47,3.47m-5.48-3.47,3.47,3.47m-5.48-3.47,3.47,3.47m-5.48-3.47,3.47,3.47m-5.48-3.47,3.47,3.47" transform="translate(-80 -83.52)" style="fill: none;stroke: #88817f;stroke-width: 0.7480000257492065px"/>
  <path d="M239.89,483.52a6.2,6.2,0,1,0-6.2-6.2,6.2,6.2,0,0,0,6.2,6.2" transform="translate(-80 -83.52)" style="fill: #6c6361"/>
  <path d="M501.41,572l3.47,3.47M499.41,572l3.47,3.47M497.4,572l3.47,3.47M495.4,572l3.47,3.47M493.4,572l3.47,3.47M491.39,572l3.47,3.47M489.39,572l3.47,3.47M487.38,572l3.47,3.47M485.38,572l3.47,3.47M483.38,572l3.47,3.47M481.37,572l3.47,3.47M479.37,572l3.47,3.47M477.36,572l3.47,3.47M475.36,572l3.47,3.47M473.36,572l3.47,3.47M471.35,572l3.47,3.47M469.35,572l3.47,3.47M467.34,572l3.47,3.47M465.34,572l3.47,3.47M463.34,572l3.47,3.47M461.33,572l3.47,3.47M459.33,572l3.47,3.47M457.32,572l3.47,3.47M455.32,572l3.47,3.47M453.32,572l3.47,3.47M451.31,572l3.47,3.47M449.31,572l3.47,3.47M447.3,572l3.47,3.47M445.3,572l3.47,3.47M443.3,572l3.47,3.47M441.29,572l3.47,3.47M439.29,572l3.47,3.47M437.28,572l3.47,3.47M435.28,572l3.47,3.47M433.28,572l3.47,3.47M431.27,572l3.47,3.47M429.27,572l3.47,3.47M427.26,572l3.47,3.47M425.26,572l3.47,3.47M423.26,572l3.47,3.47M421.25,572l3.47,3.47M419.25,572l3.47,3.47M417.24,572l3.47,3.47M415.24,572l3.47,3.47M413.24,572l3.47,3.47M411.23,572l3.47,3.47M409.23,572l3.47,3.47M407.22,572l3.47,3.47M405.22,572l3.47,3.47M403.22,572l3.47,3.47M401.21,572l3.47,3.47M399.21,572l3.47,3.47M397.2,572l3.47,3.47M395.2,572l3.47,3.47M393.19,572l3.47,3.47M391.19,572l3.47,3.47M389.19,572l3.47,3.47M387.18,572l3.47,3.47M385.18,572l3.47,3.47M383.17,572l3.47,3.47M381.17,572l3.47,3.47M379.17,572l3.47,3.47M377.16,572l3.47,3.47M375.16,572l3.47,3.47M373.15,572l3.47,3.47M371.15,572l3.47,3.47M369.15,572l3.47,3.47M367.14,572l3.47,3.47M365.14,572l3.47,3.47M363.13,572l3.47,3.47M361.13,572l3.47,3.47M359.13,572l3.47,3.47M357.12,572l3.47,3.47M355.12,572l3.47,3.47M353.11,572l3.47,3.47M351.11,572l3.47,3.47M349.11,572l3.47,3.47M347.1,572l3.47,3.47M345.1,572l3.47,3.47M343.09,572l3.47,3.47M341.09,572l3.47,3.47M339.09,572l3.47,3.47M337.08,572l3.47,3.47M335.08,572l3.47,3.47M333.07,572l3.47,3.47M331.07,572l3.47,3.47M329.07,572l3.47,3.47M327.06,572l3.47,3.47M325.06,572l3.47,3.47M323.05,572l3.47,3.47M321,572l3.47,3.47M319,572l3.47,3.47M317,572l3.47,3.47M315,572l3.47,3.47M313,572l3.47,3.47M311,572l3.47,3.47M309,572l3.47,3.47M307,572l3.47,3.47M305,572l3.47,3.47M303,572l3.47,3.47M301,572l3.47,3.47M299,572l3.47,3.47M297,572l3.47,3.47M295,572l3.47,3.47M293,572l3.47,3.47M291,572l3.47,3.47M289,572l3.47,3.47M287,572l3.47,3.47M285,572l3.47,3.47M283,572l3.47,3.47M281,572l3.47,3.47M279,572l3.47,3.47M277,572l3.47,3.47M275,572l3.47,3.47M273,572l3.47,3.47M270.95,572l3.47,3.47M268.94,572l3.47,3.47M266.94,572l3.47,3.47M264.94,572l3.47,3.47M262.93,572l3.47,3.47M260.93,572l3.47,3.47M258.92,572l3.47,3.47M256.92,572l3.47,3.47M254.92,572l3.47,3.47M252.91,572l3.47,3.47M250.91,572l3.47,3.47M248.9,572l3.47,3.47M246.9,572l3.47,3.47M244.9,572l3.47,3.47M242.89,572l3.47,3.47M240.89,572l3.47,3.47M238.88,572l3.47,3.47M236.88,572l3.47,3.47M234.88,572l3.47,3.47M232.87,572l3.47,3.47M230.87,572l3.47,3.47M228.86,572l3.47,3.47M226.86,572l3.47,3.47M224.86,572l3.47,3.47M222.85,572l3.47,3.47M220.85,572l3.47,3.47M218.84,572l3.47,3.47M216.84,572l3.47,3.47M214.84,572l3.47,3.47M212.83,572l3.47,3.47M210.83,572l3.47,3.47M208.82,572l3.47,3.47M206.82,572l3.47,3.47M204.82,572l3.47,3.47M202.81,572l3.47,3.47M200.81,572l3.47,3.47M198.8,572l3.47,3.47M196.8,572l3.47,3.47M194.8,572l3.47,3.47M192.79,572l3.47,3.47M190.79,572l3.47,3.47M188.78,572l3.47,3.47M186.78,572l3.47,3.47M184.78,572l3.47,3.47M182.77,572l3.47,3.47M180.77,572l3.47,3.47M178.76,572l3.47,3.47M176.76,572l3.47,3.47M174.75,572l3.47,3.47M172.75,572l3.47,3.47M170.75,572l3.47,3.47M168.74,572l3.47,3.47M166.74,572l3.47,3.47M164.73,572l3.47,3.47M162.73,572l3.47,3.47M160.73,572l3.47,3.47M158.72,572l3.47,3.47M156.72,572l3.47,3.47M154.71,572l3.47,3.47M152.71,572l3.47,3.47M150.71,572l3.47,3.47M148.7,572l3.47,3.47M146.7,572l3.47,3.47M144.69,572l3.47,3.47M142.69,572l3.47,3.47M140.69,572l3.47,3.47M138.68,572l3.47,3.47M136.68,572l3.47,3.47M134.67,572l3.47,3.47M132.67,572l3.47,3.47M130.67,572l3.47,3.47M128.66,572l3.47,3.47M126.66,572l3.47,3.47M124.65,572l3.47,3.47M122.65,572l3.47,3.47M120.65,572l3.47,3.47M118.64,572l3.47,3.47M116.64,572l3.47,3.47M114.63,572l3.47,3.47M112.63,572l3.47,3.47M110.63,572l3.47,3.47M108.62,572l3.47,3.47M106.62,572l3.47,3.47M104.61,572l3.47,3.47M102.61,572l3.47,3.47M100.61,572l3.47,3.47M98.6,572l3.47,3.47M96.6,572l3.47,3.47M94.59,572l3.47,3.47M92.59,572l3.47,3.47M90.59,572l3.47,3.47M88.58,572l3.47,3.47M86.58,572,90,575.42" transform="translate(-80 -83.52)" style="fill: none;stroke: #88817f;stroke-width: 0.7480000257492065px"/>
  <path d="M403.07,579.32a6.2,6.2,0,1,0-6.2-6.2,6.2,6.2,0,0,0,6.2,6.2" transform="translate(-80 -83.52)" style="fill: #6c6361"/>
  <path d="M504.88,159.83l-3.47-3.47m3.47,1.45-3.47-3.47m3.47,1.45-3.47-3.47m3.47,1.45-3.47-3.47m3.47,1.45-3.47-3.47m3.47,1.45-3.47-3.47m3.47,1.45-3.47-3.47m3.47,1.45-3.47-3.47m3.47,1.45-3.47-3.47m3.47,1.45-3.47-3.47m3.47,1.45-3.47-3.47m3.47,1.45-3.47-3.47m3.47,1.45-3.47-3.47m3.47,1.45-3.47-3.47m3.47,1.45-3.47-3.47m3.47,1.45-3.47-3.47m3.47,1.45-3.47-3.47m3.47,1.45-3.47-3.47m3.47,1.45L501.41,120m3.47,1.45L501.41,118m3.47,1.45L501.41,116m3.47,1.45L501.41,114m3.47,1.45L501.41,112m3.47,1.45-3.47-3.47m3.47,1.45-3.47-3.47m3.47,1.45-3.47-3.47m3.47,1.45-3.47-3.47m3.47,1.45-3.47-3.47m3.47,1.45-3.47-3.47m3.47,1.45-3.47-3.47m3.47,1.45-3.47-3.47m3.47,1.45-3.47-3.47m3.47,1.45-3.47-3.47" transform="translate(-80 -83.52)" style="fill: none;stroke: #88817f;stroke-width: 0.7480000257492065px"/>
  <polyline points="429.87 69.34 423.15 76.58 416.43 69.34" style="fill: none;stroke: #88817f;stroke-width: 4px"/>
  <path d="M89.92,255.86l-3.47-3.47m3.47,1.45-3.47-3.47m3.47,1.45-3.47-3.47m3.47,1.45-3.47-3.47m3.47,1.45-3.47-3.47m3.47,1.45-3.47-3.47m3.47,1.45-3.47-3.47m3.47,1.45-3.47-3.47m3.47,1.45-3.47-3.47m3.47,1.45-3.47-3.47m3.47,1.45-3.47-3.47m3.47,1.45-3.47-3.47m3.47,1.45-3.47-3.47m3.47,1.45-3.47-3.47m3.47,1.45-3.47-3.47m3.47,1.45L86.45,222m3.47,1.45L86.45,220m3.47,1.45L86.45,218m3.47,1.45L86.45,216m3.47,1.45-3.47-3.47m3.47,1.45-3.47-3.47m3.47,1.45-3.47-3.47m3.47,1.45-3.47-3.47m3.47,1.45-3.47-3.47m3.47,1.45-3.47-3.47m3.47,1.45-3.47-3.47m3.47,1.45-3.47-3.47m3.47,1.45-3.47-3.47m3.47,1.45-3.47-3.47m3.47,1.45-3.47-3.47m3.47,1.45-3.47-3.47m3.47,1.45-3.47-3.47m3.47,1.45-3.47-3.47" transform="translate(-80 -83.52)" style="fill: none;stroke: #88817f;stroke-width: 0.7480000257492065px"/>
  <polyline points="14.91 165.38 8.19 172.61 1.47 165.38" style="fill: none;stroke: #88817f;stroke-width: 4px"/>
  <path d="M106.24,291.72a6.2,6.2,0,1,0-6.2-6.2,6.2,6.2,0,0,0,6.2,6.2" transform="translate(-80 -83.52)" style="fill: #6c6361"/>
  <path d="M504.88,351.34l-3.47-3.47m3.47,1.46-3.47-3.47m3.47,1.46-3.47-3.47m3.47,1.47-3.47-3.47m3.47,1.47-3.47-3.47m3.47,1.46-3.47-3.47m3.47,1.47-3.47-3.47m3.47,1.47-3.47-3.47m3.47,1.47-3.47-3.47m3.47,1.46-3.47-3.47m3.47,1.46-3.47-3.47m3.47,1.46-3.47-3.47m3.47,1.46-3.47-3.47m3.47,1.46-3.47-3.47m3.47,1.47-3.47-3.47m3.47,1.46-3.47-3.47m3.47,1.46-3.47-3.47m3.47,1.46-3.47-3.47m3.47,1.46-3.47-3.47m3.47,1.47-3.47-3.47m3.47,1.46-3.47-3.47m3.47,1.46-3.47-3.47m3.47,1.47-3.47-3.47m3.47,1.46-3.47-3.47m3.47,1.46-3.47-3.47m3.47,1.47-3.47-3.47m3.47,1.46-3.47-3.47m3.47,1.47-3.47-3.47m3.47,1.46-3.47-3.47m3.47,1.46-3.47-3.47m3.47,1.46-3.47-3.47m3.47,1.46-3.47-3.47m3.47,1.46-3.47-3.47" transform="translate(-80 -83.52)" style="fill: none;stroke: #88817f;stroke-width: 0.7480000257492065px"/>
  <polyline points="429.87 260.85 423.15 268.08 416.43 260.85" style="fill: none;stroke: #88817f;stroke-width: 4px"/>
  <path d="M89.92,447.37l-3.47-3.47m3.47,1.45-3.47-3.47m3.47,1.45-3.47-3.47m3.47,1.45-3.47-3.47m3.47,1.45-3.47-3.47m3.47,1.45-3.47-3.47m3.47,1.45-3.47-3.47m3.47,1.45-3.47-3.47m3.47,1.45-3.47-3.47m3.47,1.45-3.47-3.47m3.47,1.45-3.47-3.47m3.47,1.45-3.47-3.47m3.47,1.45-3.47-3.47m3.47,1.45-3.47-3.47m3.47,1.45-3.47-3.47m3.47,1.45-3.47-3.47m3.47,1.45-3.47-3.47M89.92,413l-3.47-3.47M89.92,411l-3.47-3.47M89.92,409l-3.47-3.47M89.92,407l-3.47-3.47M89.92,405l-3.47-3.47m3.47,1.45-3.47-3.47m3.47,1.45-3.47-3.47m3.47,1.45-3.47-3.47m3.47,1.45-3.47-3.47m3.47,1.45-3.47-3.47m3.47,1.45-3.47-3.47m3.47,1.45-3.47-3.47m3.47,1.45-3.47-3.47m3.47,1.45-3.47-3.47m3.47,1.45-3.47-3.47m3.47,1.45-3.47-3.47" transform="translate(-80 -83.52)" style="fill: none;stroke: #88817f;stroke-width: 0.7480000257492065px"/>
  <polyline points="14.91 356.88 8.19 364.11 1.47 356.88" style="fill: none;stroke: #88817f;stroke-width: 4px"/>
  <path d="M504.88,544.14l-3.47-3.47m3.47,1.42-3.47-3.47m3.47,1.42-3.47-3.47m3.47,1.42-3.47-3.47m3.47,1.42-3.47-3.47m3.47,1.42-3.47-3.47m3.47,1.42-3.47-3.47m3.47,1.42-3.47-3.47m3.47,1.42-3.47-3.47m3.47,1.42-3.47-3.47m3.47,1.42-3.47-3.47m3.47,1.42-3.47-3.47m3.47,1.42L501.41,516m3.47,1.42L501.41,514m3.47,1.42-3.47-3.47m3.47,1.42-3.47-3.47m3.47,1.42-3.47-3.47m3.47,1.42-3.47-3.47m3.47,1.42-3.47-3.47m3.47,1.42-3.47-3.47m3.47,1.42-3.47-3.47m3.47,1.42-3.47-3.47m3.47,1.42-3.47-3.47m3.47,1.42-3.47-3.47m3.47,1.42-3.47-3.47m3.47,1.42-3.47-3.47m3.47,1.42-3.47-3.47m3.47,1.42-3.47-3.47m3.47,1.42-3.47-3.47m3.47,1.42-3.47-3.47m3.47,1.42L501.41,479m3.47,1.42L501.41,477m3.47,1.42-3.47-3.47" transform="translate(-80 -83.52)" style="fill: none;stroke: #88817f;stroke-width: 0.7480000257492065px"/>
  <polyline points="429.87 453.65 423.15 460.89 416.43 453.65" style="fill: none;stroke: #88817f;stroke-width: 4px"/>
  <path d="M403.07,195.72a6.2,6.2,0,1,0-6.2-6.2,6.2,6.2,0,0,0,6.2,6.2" transform="translate(-80 -83.52)" style="fill: #6c6361"/>
  <path d="M239.89,387.72a6.2,6.2,0,1,0-6.2-6.2,6.2,6.2,0,0,0,6.2,6.2" transform="translate(-80 -83.52)" style="fill: #6c6361"/>
  <path d="M106.53,483.72a6.2,6.2,0,1,0-6.2-6.2,6.2,6.2,0,0,0,6.2,6.2" transform="translate(-80 -83.52)" style="fill: #6c6361"/>
  <path d="M308.93,483.49a6.2,6.2,0,1,0-6.2-6.2,6.2,6.2,0,0,0,6.2,6.2" transform="translate(-80 -83.52)" style="fill: #6c6361"/>
  <path d="M501.54,667.86l3.47,3.47m-5.48-3.47,3.47,3.47m-5.48-3.47,3.47,3.47m-5.48-3.47,3.47,3.47m-5.48-3.47,3.47,3.47m-5.48-3.47,3.47,3.47m-5.48-3.47,3.47,3.47m-5.48-3.47,3.47,3.47m-5.47-3.47,3.47,3.47m-5.48-3.47,3.47,3.47m-5.48-3.47,3.47,3.47m-5.48-3.47,3.47,3.47m-5.48-3.47,3.47,3.47m-5.48-3.47,3.47,3.47m-5.48-3.47,3.47,3.47m-5.48-3.47,3.47,3.47m-5.48-3.47,3.47,3.47m-5.48-3.47,3.47,3.47m-5.48-3.47,3.47,3.47m-5.48-3.47,3.47,3.47m-5.48-3.47,3.47,3.47m-5.48-3.47,3.47,3.47m-5.48-3.47,3.47,3.47m-5.48-3.47,3.47,3.47m-5.48-3.47,3.47,3.47m-5.48-3.47,3.47,3.47m-5.48-3.47,3.47,3.47m-5.48-3.47,3.47,3.47m-5.48-3.47,3.47,3.47m-5.48-3.47,3.47,3.47m-5.48-3.47,3.47,3.47m-5.48-3.47,3.47,3.47m-5.48-3.47,3.47,3.47m-5.47-3.47,3.47,3.47m-5.48-3.47,3.47,3.47m-5.48-3.47,3.47,3.47m-5.48-3.47,3.47,3.47m-5.48-3.47,3.47,3.47m-5.48-3.47,3.47,3.47m-5.48-3.47,3.47,3.47m-5.48-3.47,3.47,3.47m-5.48-3.47,3.47,3.47m-5.48-3.47,3.47,3.47m-5.48-3.47,3.47,3.47m-5.48-3.47,3.47,3.47m-5.48-3.47,3.47,3.47m-5.48-3.47,3.47,3.47m-5.47-3.47,3.47,3.47m-5.48-3.47,3.47,3.47m-5.48-3.47,3.47,3.47m-5.48-3.47,3.47,3.47m-5.48-3.47,3.47,3.47m-5.48-3.47,3.47,3.47m-5.48-3.47,3.47,3.47m-5.48-3.47,3.47,3.47m-5.48-3.47,3.47,3.47m-5.48-3.47,3.47,3.47m-5.48-3.47,3.47,3.47m-5.48-3.47,3.47,3.47m-5.48-3.47,3.47,3.47m-5.48-3.47,3.47,3.47m-5.48-3.47,3.47,3.47m-5.48-3.47,3.47,3.47m-5.48-3.47,3.47,3.47m-5.48-3.47,3.47,3.47m-5.48-3.47,3.47,3.47m-5.48-3.47,3.47,3.47m-5.48-3.47,3.47,3.47m-5.48-3.47,3.47,3.47m-5.48-3.47,3.47,3.47m-5.48-3.47,3.47,3.47m-5.48-3.47,3.47,3.47m-5.48-3.47,3.47,3.47m-5.48-3.47,3.47,3.47m-5.48-3.47,3.47,3.47m-5.48-3.47,3.47,3.47m-5.48-3.47,3.47,3.47m-5.48-3.47,3.47,3.47m-5.48-3.47,3.47,3.47m-5.48-3.47,3.47,3.47m-5.48-3.47,3.47,3.47m-5.48-3.47,3.47,3.47m-5.48-3.47,3.47,3.47m-5.48-3.47,3.47,3.47m-5.48-3.47,3.47,3.47m-5.48-3.47,3.47,3.47m-5.48-3.47,3.47,3.47m-5.48-3.47,3.47,3.47m-5.48-3.47,3.47,3.47m-5.47-3.47,3.47,3.47m-5.48-3.47,3.47,3.47m-5.48-3.47,3.47,3.47m-5.48-3.47,3.47,3.47m-5.48-3.47,3.47,3.47m-5.48-3.47,3.47,3.47m-5.48-3.47,3.47,3.47m-5.48-3.47,3.47,3.47m-5.48-3.47,3.47,3.47m-5.48-3.47,3.47,3.47m-5.48-3.47,3.47,3.47m-5.48-3.47,3.47,3.47m-5.48-3.47,3.47,3.47m-5.48-3.47,3.47,3.47m-5.47-3.47,3.47,3.47m-5.48-3.47,3.47,3.47m-5.48-3.47,3.47,3.47M289,667.86l3.47,3.47M287,667.86l3.47,3.47M285,667.86l3.47,3.47M283,667.86l3.47,3.47M281,667.86l3.47,3.47M279,667.86l3.47,3.47M277,667.86l3.47,3.47M275,667.86l3.47,3.47M273,667.86l3.47,3.47M271,667.86l3.47,3.47M269,667.86l3.47,3.47M267,667.86l3.47,3.47M265,667.86l3.47,3.47M263,667.86l3.47,3.47M261,667.86l3.47,3.47M259,667.86l3.47,3.47M257,667.86l3.47,3.47M255,667.86l3.47,3.47M253,667.86l3.47,3.47M251,667.86l3.47,3.47M249,667.86l3.47,3.47m-5.48-3.47,3.47,3.47m-5.48-3.47,3.47,3.47m-5.48-3.47,3.47,3.47m-5.48-3.47,3.47,3.47m-5.48-3.47,3.47,3.47m-5.48-3.47,3.47,3.47m-5.48-3.47,3.47,3.47m-5.48-3.47,3.47,3.47m-5.48-3.47,3.47,3.47m-5.47-3.47,3.47,3.47m-5.48-3.47,3.47,3.47m-5.48-3.47,3.47,3.47m-5.48-3.47,3.47,3.47m-5.48-3.47,3.47,3.47m-5.48-3.47,3.47,3.47m-5.48-3.47,3.47,3.47m-5.48-3.47,3.47,3.47m-5.48-3.47,3.47,3.47m-5.47-3.47,3.47,3.47m-5.48-3.47,3.47,3.47m-5.47-3.47,3.47,3.47m-5.48-3.47,3.47,3.47m-5.48-3.47,3.47,3.47m-5.47-3.47,3.47,3.47m-5.48-3.47,3.47,3.47m-5.48-3.47,3.47,3.47m-5.47-3.47,3.47,3.47m-5.48-3.47,3.47,3.47m-5.48-3.47,3.47,3.47m-5.47-3.47,3.47,3.47m-5.48-3.47,3.47,3.47m-5.48-3.47,3.47,3.47m-5.47-3.47,3.47,3.47m-5.48-3.47,3.47,3.47m-5.48-3.47,3.47,3.47m-5.48-3.47,3.47,3.47m-5.48-3.47,3.47,3.47m-5.48-3.47,3.47,3.47m-5.48-3.47,3.47,3.47m-5.48-3.47,3.47,3.47m-5.48-3.47,3.47,3.47m-5.48-3.47,3.47,3.47m-5.47-3.47,3.47,3.47m-5.48-3.47,3.47,3.47m-5.48-3.47,3.47,3.47m-5.47-3.47,3.47,3.47m-5.48-3.47,3.47,3.47m-5.48-3.47,3.47,3.47m-5.47-3.47,3.47,3.47m-5.48-3.47,3.47,3.47m-5.48-3.47,3.47,3.47m-5.48-3.47,3.47,3.47m-5.48-3.47,3.47,3.47m-5.48-3.47,3.47,3.47m-5.48-3.47,3.47,3.47m-5.48-3.47,3.47,3.47m-5.48-3.47,3.47,3.47m-5.48-3.47,3.47,3.47m-5.48-3.47,3.47,3.47m-5.48-3.47,3.47,3.47m-5.48-3.47,3.47,3.47m-5.48-3.47,3.47,3.47m-5.47-3.47,3.47,3.47m-5.48-3.47,3.47,3.47m-5.48-3.47,3.47,3.47m-5.47-3.47,3.47,3.47m-5.48-3.47,3.47,3.47m-5.47-3.47,3.47,3.47m-5.47-3.47,3.47,3.47m-5.48-3.47,3.47,3.47m-5.48-3.47,3.47,3.47m-5.48-3.47,3.47,3.47m-5.48-3.47,3.47,3.47m-5.48-3.47,3.47,3.47m-5.48-3.47,3.47,3.47m-5.48-3.47,3.47,3.47m-5.48-3.47,3.47,3.47m-5.48-3.47,3.47,3.47m-5.48-3.47,3.47,3.47m-5.48-3.47,3.47,3.47m-5.48-3.47L90,671.33" transform="translate(-80 -83.52)" style="fill: none;stroke: #88817f;stroke-width: 0.7480000257492065px"/>
  <path d="M106.19,675.49a6.2,6.2,0,1,0-6.2-6.2,6.2,6.2,0,0,0,6.2,6.2" transform="translate(-80 -83.52)" style="fill: #6c6361"/>
  <path d="M90,640.05l-3.47-3.47M90,638l-3.47-3.47M90,636l-3.47-3.47M90,634l-3.47-3.47M90,632l-3.47-3.47M90,630l-3.47-3.47M90,627.93l-3.47-3.47M90,625.91l-3.47-3.47M90,623.89l-3.47-3.47M90,621.87l-3.47-3.47M90,619.85l-3.47-3.47M90,617.84l-3.47-3.47M90,615.81l-3.47-3.47M90,613.8l-3.47-3.47M90,611.78l-3.47-3.47M90,609.76l-3.47-3.47M90,607.74l-3.47-3.47M90,605.72l-3.47-3.47M90,603.7l-3.47-3.47M90,601.68l-3.47-3.47M90,599.66l-3.47-3.47M90,597.64l-3.47-3.47M90,595.62l-3.47-3.47M90,593.6l-3.47-3.47M90,591.58l-3.47-3.47M90,589.56l-3.47-3.47M90,587.54l-3.47-3.47M90,585.52l-3.47-3.47M90,583.5,86.58,580M90,581.48,86.58,578M90,579.46,86.58,576M90,577.45,86.58,574M90,575.42,86.58,572" transform="translate(-80 -83.52)" style="fill: none;stroke: #88817f;stroke-width: 0.7480000257492065px"/>
  <polyline points="15.04 549.56 8.31 556.79 1.59 549.56" style="fill: none;stroke: #88817f;stroke-width: 4px"/>
  <path d="M501.41,91.78l3.47,3.47m-5.48-3.47,3.47,3.47m-5.48-3.47,3.47,3.47m-5.48-3.47,3.47,3.47m-5.48-3.47,3.47,3.47m-5.48-3.47,3.47,3.47m-5.48-3.47,3.47,3.47m-5.48-3.47,3.47,3.47m-5.48-3.47,3.47,3.47m-5.48-3.47,3.47,3.47m-5.48-3.47,3.47,3.47m-5.48-3.47,3.47,3.47m-5.48-3.47,3.47,3.47m-5.48-3.47,3.47,3.47m-5.48-3.47,3.47,3.47m-5.48-3.47,3.47,3.47m-5.48-3.47,3.47,3.47m-5.48-3.47,3.47,3.47m-5.48-3.47,3.47,3.47m-5.48-3.47,3.47,3.47m-5.48-3.47,3.47,3.47m-5.48-3.47,3.47,3.47m-5.48-3.47,3.47,3.47m-5.48-3.47,3.47,3.47m-5.48-3.47,3.47,3.47m-5.48-3.47,3.47,3.47m-5.48-3.47,3.47,3.47m-5.48-3.47,3.47,3.47m-5.48-3.47,3.47,3.47m-5.48-3.47,3.47,3.47m-5.48-3.47,3.47,3.47m-5.48-3.47,3.47,3.47m-5.48-3.47,3.47,3.47m-5.48-3.47,3.47,3.47m-5.48-3.47,3.47,3.47m-5.48-3.47,3.47,3.47m-5.48-3.47,3.47,3.47m-5.48-3.47,3.47,3.47m-5.48-3.47,3.47,3.47m-5.48-3.47,3.47,3.47m-5.48-3.47,3.47,3.47m-5.48-3.47,3.47,3.47m-5.48-3.47,3.47,3.47m-5.48-3.47,3.47,3.47m-5.48-3.47,3.47,3.47m-5.48-3.47,3.47,3.47m-5.48-3.47,3.47,3.47m-5.48-3.47,3.47,3.47m-5.48-3.47,3.47,3.47m-5.48-3.47,3.47,3.47m-5.48-3.47,3.47,3.47m-5.48-3.47,3.47,3.47m-5.48-3.47,3.47,3.47m-5.48-3.47,3.47,3.47m-5.48-3.47,3.47,3.47m-5.48-3.47,3.47,3.47m-5.48-3.47,3.47,3.47m-5.48-3.47,3.47,3.47m-5.48-3.47,3.47,3.47m-5.48-3.47,3.47,3.47m-5.48-3.47,3.47,3.47m-5.48-3.47,3.47,3.47m-5.48-3.47,3.47,3.47m-5.48-3.47,3.47,3.47m-5.48-3.47,3.47,3.47m-5.48-3.47,3.47,3.47m-5.48-3.47,3.47,3.47m-5.48-3.47,3.47,3.47m-5.48-3.47,3.47,3.47M363,91.78l3.47,3.47M361,91.78l3.47,3.47M359,91.78l3.47,3.47M357,91.78l3.47,3.47M355,91.78l3.47,3.47M353,91.78l3.47,3.47M351,91.78l3.47,3.47M349,91.78l3.47,3.47M347,91.78l3.47,3.47M345,91.78l3.47,3.47M343,91.78l3.47,3.47M341,91.78l3.47,3.47M339,91.78l3.47,3.47M337,91.78l3.47,3.47M335,91.78l3.47,3.47M333,91.78l3.47,3.47M331,91.78l3.47,3.47M329,91.78l3.47,3.47M327,91.78l3.47,3.47m-5.48-3.47,3.47,3.47m-5.48-3.47,3.47,3.47m-5.48-3.47,3.47,3.47m-5.48-3.47,3.47,3.47m-5.48-3.47,3.47,3.47m-5.48-3.47,3.47,3.47m-5.48-3.47,3.47,3.47m-5.48-3.47,3.47,3.47m-5.48-3.47,3.47,3.47m-5.48-3.47,3.47,3.47m-5.48-3.47,3.47,3.47m-5.48-3.47,3.47,3.47m-5.48-3.47,3.47,3.47m-5.48-3.47,3.47,3.47m-5.48-3.47,3.47,3.47m-5.48-3.47,3.47,3.47m-5.48-3.47,3.47,3.47m-5.48-3.47,3.47,3.47m-5.48-3.47,3.47,3.47m-5.48-3.47,3.47,3.47m-5.48-3.47,3.47,3.47m-5.48-3.47,3.47,3.47m-5.48-3.47,3.47,3.47m-5.48-3.47,3.47,3.47m-5.48-3.47,3.47,3.47m-5.48-3.47,3.47,3.47m-5.48-3.47,3.47,3.47m-5.48-3.47,3.47,3.47m-5.48-3.47,3.47,3.47m-5.48-3.47,3.47,3.47m-5.48-3.47,3.47,3.47m-5.48-3.47,3.47,3.47m-5.48-3.47,3.47,3.47m-5.48-3.47,3.47,3.47m-5.48-3.47,3.47,3.47m-5.48-3.47,3.47,3.47m-5.48-3.47,3.47,3.47m-5.48-3.47,3.47,3.47m-5.48-3.47,3.47,3.47m-5.48-3.47,3.47,3.47m-5.48-3.47,3.47,3.47m-5.48-3.47,3.47,3.47m-5.48-3.47,3.47,3.47m-5.48-3.47,3.47,3.47m-5.48-3.47,3.47,3.47m-5.48-3.47,3.47,3.47m-5.48-3.47,3.47,3.47m-5.48-3.47,3.47,3.47m-5.48-3.47,3.47,3.47m-5.48-3.47,3.47,3.47m-5.48-3.47,3.47,3.47m-5.48-3.47,3.47,3.47m-5.48-3.47,3.47,3.47m-5.48-3.47,3.47,3.47m-5.48-3.47,3.47,3.47m-5.48-3.47,3.47,3.47m-5.48-3.47,3.47,3.47m-5.48-3.47,3.47,3.47m-5.48-3.47,3.47,3.47m-5.48-3.47,3.47,3.47m-5.48-3.47,3.47,3.47m-5.48-3.47,3.47,3.47m-5.48-3.47,3.47,3.47m-5.48-3.47,3.47,3.47m-5.48-3.47,3.47,3.47m-5.48-3.47,3.47,3.47m-5.48-3.47,3.47,3.47m-5.48-3.47,3.47,3.47m-5.48-3.47,3.47,3.47m-5.48-3.47,3.47,3.47m-5.48-3.47,3.47,3.47m-5.48-3.47L186,95.26m-5.48-3.47L184,95.26m-5.48-3.47L182,95.26m-5.48-3.47L180,95.26m-5.48-3.47L178,95.26m-5.48-3.47L176,95.26m-5.48-3.47L174,95.26m-5.48-3.47L172,95.26m-5.48-3.47L170,95.26m-5.48-3.47L168,95.26m-5.48-3.47L166,95.26m-5.48-3.47L164,95.26m-5.48-3.47L162,95.26m-5.48-3.47L160,95.26m-5.48-3.47L158,95.26m-5.48-3.47L156,95.26m-5.48-3.47L154,95.26m-5.48-3.47L152,95.26m-5.48-3.47L150,95.26m-5.48-3.47,3.47,3.47m-5.48-3.47,3.47,3.47m-5.48-3.47,3.47,3.47m-5.48-3.47,3.47,3.47m-5.48-3.47,3.47,3.47m-5.48-3.47,3.47,3.47m-5.48-3.47,3.47,3.47m-5.48-3.47,3.47,3.47m-5.48-3.47,3.47,3.47m-5.48-3.47,3.47,3.47m-5.48-3.47,3.47,3.47m-5.48-3.47,3.47,3.47m-5.48-3.47,3.47,3.47m-5.48-3.47,3.47,3.47m-5.48-3.47,3.47,3.47m-5.48-3.47,3.47,3.47m-5.48-3.47,3.47,3.47" transform="translate(-80 -83.52)" style="fill: none;stroke: #88817f;stroke-width: 0.7480000257492065px"/>
  <circle cx="24.13" cy="10" r="8" style="fill: none;stroke: #88817f;stroke-width: 4px"/>
  <path d="M504.88,191.11l-3.47-3.47m3.47,1.44-3.47-3.47m3.47,1.44-3.47-3.47m3.47,1.44-3.47-3.47m3.47,1.44-3.47-3.47m3.47,1.44-3.47-3.47m3.47,1.44-3.47-3.47m3.47,1.44-3.47-3.47m3.47,1.44-3.47-3.47m3.47,1.44-3.47-3.47m3.47,1.44-3.47-3.47m3.47,1.44-3.47-3.47m3.47,1.44-3.47-3.47" transform="translate(-80 -83.52)" style="fill: none;stroke: #88817f;stroke-width: 0.7480000257492065px"/>
  <path d="M153.93,99.72a6.2,6.2,0,1,0-6.2-6.2,6.2,6.2,0,0,0,6.2,6.2" transform="translate(-80 -83.52)" style="fill: #6c6361"/>
  <path d="M296.27,99.72a6.2,6.2,0,1,0-6.2-6.2,6.2,6.2,0,0,0,6.2,6.2" transform="translate(-80 -83.52)" style="fill: #6c6361"/>
  <path d="M372.39,99.72a6.2,6.2,0,1,0-6.2-6.2,6.2,6.2,0,0,0,6.2,6.2" transform="translate(-80 -83.52)" style="fill: #6c6361"/>
  <path d="M89.92,287.15l-3.47-3.47m3.47,1.44-3.47-3.47m3.47,1.44-3.47-3.47m3.47,1.44-3.47-3.47M89.92,279l-3.47-3.47M89.92,277l-3.47-3.47M89.92,275l-3.47-3.47m3.47,1.44-3.47-3.47m3.47,1.44-3.47-3.47m3.47,1.44-3.47-3.47m3.47,1.44-3.47-3.47m3.47,1.44-3.47-3.47m3.47,1.44-3.47-3.47" transform="translate(-80 -83.52)" style="fill: none;stroke: #88817f;stroke-width: 0.7480000257492065px"/>
  <path d="M504.88,382.74l-3.47-3.47m3.47,1.44-3.47-3.47m3.47,1.44-3.47-3.47m3.47,1.44-3.47-3.47m3.47,1.44-3.47-3.47m3.47,1.44-3.47-3.47m3.47,1.44-3.47-3.47m3.47,1.44-3.47-3.47m3.47,1.44L501.41,363m3.47,1.44L501.41,361m3.47,1.44L501.41,359m3.47,1.44L501.41,357m3.47,1.44-3.47-3.47" transform="translate(-80 -83.52)" style="fill: none;stroke: #88817f;stroke-width: 0.7480000257492065px"/>
  <path d="M89.92,478.39l-3.47-3.47m3.47,1.46-3.47-3.47m3.47,1.46-3.47-3.47m3.47,1.46-3.47-3.47m3.47,1.46-3.47-3.47m3.47,1.46-3.47-3.47m3.47,1.46-3.47-3.47m3.47,1.46-3.47-3.47m3.47,1.46-3.47-3.47m3.47,1.46-3.47-3.47m3.47,1.46-3.47-3.47m3.47,1.46-3.47-3.47m3.47,1.46-3.47-3.47" transform="translate(-80 -83.52)" style="fill: none;stroke: #88817f;stroke-width: 0.7480000257492065px"/>
  <path d="M504.88,575.42,501.41,572m3.47,1.44-3.47-3.47m3.47,1.44-3.47-3.47m3.47,1.44-3.47-3.47m3.47,1.44-3.47-3.47m3.47,1.44-3.47-3.47m3.47,1.44-3.47-3.47m3.47,1.44-3.47-3.47m3.47,1.44-3.47-3.47m3.47,1.44-3.47-3.47m3.47,1.44-3.47-3.47m3.47,1.44-3.47-3.47m3.47,1.44-3.47-3.47" transform="translate(-80 -83.52)" style="fill: none;stroke: #88817f;stroke-width: 0.7480000257492065px"/>
  <path d="M89.92,671.33l-3.47-3.47m3.47,1.44-3.47-3.47m3.47,1.44-3.47-3.47m3.47,1.44-3.47-3.47m3.47,1.44-3.47-3.47m3.47,1.44-3.47-3.47m3.47,1.44-3.47-3.47m3.47,1.44-3.47-3.47m3.47,1.44-3.47-3.47m3.47,1.44-3.47-3.47M89.92,651l-3.47-3.47M89.92,649l-3.47-3.47M89.92,647l-3.47-3.47" transform="translate(-80 -83.52)" style="fill: none;stroke: #88817f;stroke-width: 0.7480000257492065px"/>
  <path d="M432.3,291.59a6.2,6.2,0,1,0-6.2-6.2,6.2,6.2,0,0,0,6.2,6.2" transform="translate(-80 -83.52)" style="fill: #6c6361"/>
  <path d="M186,579.72a6.2,6.2,0,1,0-6.2-6.2,6.2,6.2,0,0,0,6.2,6.2" transform="translate(-80 -83.52)" style="fill: #6c6361"/>
  <path d="M309.24,675.32a6.2,6.2,0,1,0-6.2-6.2,6.2,6.2,0,0,0,6.2,6.2" transform="translate(-80 -83.52)" style="fill: #6c6361"/>
</svg>